<?xml version="1.0" encoding="UTF-8" standalone="no"?>
<!-- Created with Inkscape (http://www.inkscape.org/) -->

<svg
   xmlns:dc="http://purl.org/dc/elements/1.1/"
   xmlns:cc="http://creativecommons.org/ns#"
   xmlns:rdf="http://www.w3.org/1999/02/22-rdf-syntax-ns#"
   xmlns:svg="http://www.w3.org/2000/svg"
   xmlns="http://www.w3.org/2000/svg"
   xmlns:sodipodi="http://sodipodi.sourceforge.net/DTD/sodipodi-0.dtd"
   xmlns:inkscape="http://www.inkscape.org/namespaces/inkscape"
   id="svg4155"
   version="1.1"
   inkscape:version="0.91 r13725"
   xml:space="preserve"
   width="100%"
   height="100%"
   viewBox="0 0 417.1875 276.11249"
   sodipodi:docname="WVBB3_logo.eps"><metadata
     id="metadata4161"><rdf:RDF><cc:Work
         rdf:about=""><dc:format>image/svg+xml</dc:format><dc:type
           rdf:resource="http://purl.org/dc/dcmitype/StillImage" /><dc:title></dc:title></cc:Work></rdf:RDF></metadata><defs
     id="defs4159" /><sodipodi:namedview
     pagecolor="#ffffff"
     bordercolor="#666666"
     borderopacity="1"
     objecttolerance="10"
     gridtolerance="10"
     guidetolerance="10"
     inkscape:pageopacity="0"
     inkscape:pageshadow="2"
     inkscape:window-width="1366"
     inkscape:window-height="709"
     id="namedview4157"
     showgrid="false"
     inkscape:zoom="1.9158858"
     inkscape:cx="208.59375"
     inkscape:cy="138.05624"
     inkscape:window-x="0"
     inkscape:window-y="0"
     inkscape:window-maximized="1"
     inkscape:current-layer="g4165" /><g
     id="g4163"
     inkscape:groupmode="layer"
     inkscape:label="ink_ext_XXXXXX"
     transform="matrix(1.25,0,0,-1.25,0,276.1125)"><g
       id="g4165"
       transform="scale(0.1,0.1)"><path
         d="m 2334.47,1062.09 -116.53,81.02 741.06,1065.82 116.54,-81.02 -741.07,-1065.82"
         style="fill:#881f1d;fill-opacity:1;fill-rule:nonzero;stroke:none"
         id="path4167"
         inkscape:connector-curvature="0" /><path
         d="m 3337.48,1956.63 -115.49,82.5 -837.68,-1172.751 -713.25,446.971 0,2.91 -2.32,-1.46 -2.32,1.46 0,-2.91 L 953.176,866.379 115.488,2039.13 0,1956.63 915.332,675.16 l 753.408,472.13 753.41,-472.13 915.33,1281.47"
         style="fill:#4b6637;fill-opacity:1;fill-rule:nonzero;stroke:none"
         id="path4169"
         inkscape:connector-curvature="0" /><path
         d="M 1666.72,2.92188 1194.71,685.609 1311.46,766.32 1667.37,251.539 c 0,0 2.74,-0.379 2.74,0 L 2026.03,766.32 2142.77,685.609 1670.76,2.92188 1668.74,0 l -2.02,2.92188"
         style="fill:#881f1d;fill-opacity:1;fill-rule:nonzero;stroke:none"
         id="path4171"
         inkscape:connector-curvature="0" /><path
         d="m 1003.01,1062.09 116.53,81.02 -741.067,1065.82 -116.528,-81.02 741.065,-1065.82"
         style="fill:#881f1d;fill-opacity:1;fill-rule:nonzero;stroke:none"
         id="path4173"
         inkscape:connector-curvature="0" /></g></g></svg>
